PathFileType	4	(X/Y/Z)	 s07c0301.trc
DataRate	CameraRate	NumFrames	NumMarkers	Units	OrigDataRate	OrigDataStartFrame	OrigNumFrames
200	200	5	48	mm	200	1251	2000
Frame#	Time	racr			lacr			c7			jug			rlel			rdr			llel			ldr			s2			lic			ric			lasi			rasi			rpsi			lpsi			rgt			lgt			rth1			rth2			rth3			rth4			rlfc			rmfc			rsh1			rsh2			rsh3			rsh4			rlmal			rcal			rtoe			rmt5			lth1			lth2			lth4			lth3			llfc			lmfc			lsh1			lsh2			lsh3			lsh4			llmal			lcal			ltoe			lmt5			SBIKE			LBIKE			RBIKE			
		X1	Y1	Z1	X2	Y2	Z2	X3	Y3	Z3	X4	Y4	Z4	X5	Y5	Z5	X6	Y6	Z6	X7	Y7	Z7	X8	Y8	Z8	X9	Y9	Z9	X10	Y10	Z10	X11	Y11	Z11	X12	Y12	Z12	X13	Y13	Z13	X14	Y14	Z14	X15	Y15	Z15	X16	Y16	Z16	X17	Y17	Z17	X18	Y18	Z18	X19	Y19	Z19	X20	Y20	Z20	X21	Y21	Z21	X22	Y22	Z22	X23	Y23	Z23	X24	Y24	Z24	X25	Y25	Z25	X26	Y26	Z26	X27	Y27	Z27	X28	Y28	Z28	X29	Y29	Z29	X30	Y30	Z30	X31	Y31	Z31	X32	Y32	Z32	X33	Y33	Z33	X34	Y34	Z34	X35	Y35	Z35	X36	Y36	Z36	X37	Y37	Z37	X38	Y38	Z38	X39	Y39	Z39	X40	Y40	Z40	X41	Y41	Z41	X42	Y42	Z42	X43	Y43	Z43	X44	Y44	Z44	X45	Y45	Z45	X46	Y46	Z46	X47	Y47	Z47	X48	Y48	Z48	
1251	6.2550	875.680146	1353.430918	-96.263176	839.515070	1400.835014	-432.801508	873.075887	1437.623397	-257.383853	807.614648	1299.136334	-278.123027	602.739493	1150.233984	44.027363	732.120332	919.023292	-57.609671	597.015732	1150.037461	-515.308642	729.326473	913.318283	-404.692479	271.640979	1279.350869	-199.284124	412.340906	1332.441527	-356.984447	475.671830	1255.097183	-82.339985	430.146919	1245.784327	-347.408956	472.793008	1199.795294	-102.580519	317.526192	1304.516300	-148.702363	305.646488	1330.142591	-253.336805	375.517209	1138.795869	-44.650381	338.612890	1190.498283	-402.124711	387.972839	990.629933	-51.099281	399.232320	904.059455	-60.337440	372.022652	823.096600	-55.597121	431.776229	902.120148	-77.511615	345.929018	684.436321	-86.549689	314.925082	676.467935	-183.765185	261.497269	572.356681	-49.563380	230.627119	489.104895	-65.771633	169.011714	429.542905	-53.942200	241.615798	484.397973	-103.535680	86.578703	318.072063	-51.547001	14.120795	334.202128	-72.398809	197.433953	115.976357	-131.785471	125.576955	138.375467	-51.773330	419.201498	1098.117161	-415.147477	498.731399	1060.774406	-423.678280	522.830466	1086.990477	-413.899654	549.836923	987.811244	-428.061688	655.544424	838.328908	-410.694644	658.199466	833.194886	-306.454795	545.900368	758.384849	-417.144355	431.765777	681.716054	-399.996728	397.068991	672.934395	-400.190880	470.083423	694.631220	-349.671624	277.895465	611.708190	-397.334136	198.686110	629.943830	-363.282656	395.310548	416.685261	-350.565568	312.468697	443.194177	-420.405010	-259.908443	975.983973	-232.932647	-76.195052	83.859542	-438.102619	-82.990410	80.001366	-40.486331	
1252	6.2600	876.107906	1352.128871	-98.273266	839.975570	1399.877901	-434.504609	874.028270	1436.132908	-259.144702	806.996173	1298.374539	-279.713320	602.027341	1150.468031	41.909557	732.269204	919.040054	-57.989028	596.298611	1149.916442	-515.680370	729.255563	913.712080	-404.757796	272.245782	1282.883911	-197.152564	411.866227	1335.344863	-355.586990	476.667715	1257.800282	-81.688530	429.285689	1248.643587	-346.371620	473.475372	1202.621672	-102.085341	318.752159	1306.982575	-147.512951	305.792682	1333.442671	-251.062883	377.225061	1140.921249	-43.315041	336.934498	1194.047834	-400.245089	391.865907	992.009221	-51.542049	404.724733	905.981479	-61.390620	378.893631	824.254402	-56.993564	437.121606	904.358974	-78.673407	354.900134	685.383557	-87.770377	323.624407	677.715179	-184.949481	267.939774	575.240874	-50.363240	234.971383	492.641501	-66.390651	172.108965	434.768049	-54.135425	245.779257	487.789990	-104.150331	87.321020	325.056011	-51.088817	16.049738	344.286037	-73.092709	187.493906	117.238641	-131.603093	117.010142	143.440589	-51.802612	416.229448	1100.797652	-413.590003	495.498342	1063.073090	-422.735721	519.862472	1089.258813	-413.467209	546.208271	989.889464	-427.255157	652.851708	839.574554	-410.445344	654.035001	834.265080	-305.526074	543.876581	758.244602	-417.197276	437.131999	681.020715	-399.778018	398.895169	669.742870	-401.062607	468.175206	696.137139	-348.229431	279.707990	605.136904	-396.898535	199.473335	620.140886	-363.219210	404.602566	415.258662	-350.570251	319.620276	438.340195	-420.674284	-259.869284	976.076588	-233.018709	-76.185705	83.890430	-438.105612	-82.964152	80.085432	-40.474187	
1253	6.2650	876.575978	1350.454138	-100.148374	840.467665	1398.357624	-435.886761	874.978706	1434.212003	-260.744181	806.320154	1297.216646	-280.998021	601.229064	1150.482544	40.081983	732.260022	918.969076	-58.225359	595.304599	1149.790747	-516.079401	729.197483	914.127556	-404.916774	272.702409	1286.423993	-195.174990	411.519467	1338.241189	-354.336678	477.494903	1260.691206	-80.809750	428.551463	1251.417137	-345.303169	474.003452	1205.398084	-101.722635	319.581198	1309.901639	-145.788976	306.175418	1337.013379	-249.175271	378.945382	1143.030304	-42.104003	335.384533	1197.471439	-398.350616	396.078136	993.651047	-52.018200	410.746474	907.831077	-62.791147	386.794026	825.514445	-58.614623	442.818098	907.126175	-80.523763	364.585459	686.440230	-89.239557	333.122941	678.968285	-186.308245	275.009747	578.368844	-51.438951	240.797006	496.820637	-66.652927	175.911967	440.169307	-54.692923	250.664094	491.512064	-104.867317	89.054163	332.071830	-50.941493	18.653352	354.670438	-73.729158	176.319164	117.672977	-132.807225	108.740667	148.901931	-51.809026	413.143355	1103.083681	-411.933149	491.994929	1064.679612	-421.696528	516.641073	1090.776219	-412.911093	542.006809	991.013301	-426.354954	649.467055	840.237014	-410.087188	650.089470	834.282285	-305.352867	541.174186	756.725825	-416.454324	443.229595	680.260103	-399.566896	399.554883	665.431452	-401.518150	467.007937	693.594791	-346.899202	280.769128	597.657144	-396.481267	199.595388	609.175246	-363.270832	413.452979	414.042204	-351.633769	326.337214	432.974561	-420.932886	-259.830576	976.142028	-233.106016	-76.166300	83.936240	-438.091032	-82.945823	80.156517	-40.488892	
1254	6.2700	876.948021	1348.345252	-101.972917	840.896401	1396.233403	-437.082644	875.737677	1431.960463	-262.287291	805.523380	1295.838437	-282.039076	600.407586	1150.272666	38.453438	732.250412	918.677347	-58.503540	593.995444	1149.541614	-516.494008	729.025251	914.528043	-404.973117	272.857433	1290.260810	-193.036132	411.144724	1341.027917	-352.920483	478.181331	1263.605281	-79.858807	427.719027	1254.113323	-344.159724	474.546838	1208.206967	-101.197864	320.567686	1312.872668	-144.020360	306.691396	1340.462272	-247.478036	380.820293	1145.117758	-40.929306	333.715533	1200.677036	-396.422764	400.796173	995.113955	-52.449400	417.174082	909.828770	-64.384931	395.325187	826.991304	-60.395996	448.830904	910.055721	-82.711471	374.774073	687.598377	-90.860500	343.140096	680.361445	-187.888342	282.619019	581.720111	-52.710565	246.448690	501.011312	-67.805097	180.380681	445.837139	-55.482783	256.129911	495.280354	-106.027122	91.668992	338.900453	-51.012697	21.873154	365.060365	-74.246316	166.405953	119.389057	-132.824237	101.130957	154.851808	-51.864543	410.185068	1105.067462	-410.490552	488.486564	1065.668804	-420.738437	513.515378	1091.468259	-412.360741	537.539468	991.303872	-425.421070	645.438965	840.307820	-409.643007	645.814650	833.147290	-305.368404	537.476479	754.707509	-416.990691	449.489801	679.189367	-399.361867	398.988474	659.897890	-401.490472	466.855287	689.535483	-345.793879	281.102173	589.318213	-396.153150	199.137712	597.324572	-363.258922	421.112927	412.166534	-352.070640	332.603039	427.110171	-421.177442	-259.780546	976.187739	-233.193604	-76.145151	83.939859	-438.090098	-82.876054	80.239186	-40.455369	
1255	6.2750	877.114031	1345.928284	-103.630547	841.196673	1393.681278	-437.997537	876.373551	1429.475368	-263.830539	804.600153	1294.132640	-282.971929	599.565811	1149.822202	37.178151	732.198478	918.208334	-58.543221	592.148361	1148.951545	-516.224755	728.808455	914.924053	-405.126812	273.338415	1293.556151	-190.910040	410.698706	1343.663241	-351.714106	478.791597	1266.466005	-78.870323	426.883243	1256.546819	-343.092113	475.047705	1210.945142	-100.838060	321.559148	1315.581958	-142.359947	307.197126	1343.684949	-245.625889	382.590559	1147.023021	-39.747969	332.087279	1203.742423	-394.468268	405.699808	996.711356	-52.945407	423.997918	912.094610	-66.129082	404.470316	828.504404	-62.259773	455.164376	913.161136	-85.203844	385.245895	688.986145	-92.561683	353.656470	681.909324	-189.663361	290.632827	585.146063	-54.253958	252.951203	505.410976	-68.859433	185.305645	451.645285	-56.578601	261.517519	499.305356	-107.953405	94.908175	345.595225	-51.397355	25.220247	375.432365	-74.929783	156.650352	122.128355	-132.835642	94.326674	161.700108	-52.114417	407.557928	1106.637467	-409.270595	485.168737	1065.950576	-419.870740	510.620306	1091.439474	-411.834859	533.016456	990.863358	-424.531062	640.815937	839.778502	-409.135633	640.871614	831.108519	-305.433798	533.117443	751.641034	-417.299990	455.343853	677.563655	-399.161439	397.136280	653.039927	-400.912536	467.641093	683.064557	-344.542284	280.972175	579.928140	-395.946728	198.243178	584.276840	-363.392276	428.159124	409.731304	-352.876900	338.404673	420.763643	-421.405360	-259.749717	976.196504	-233.308710	-76.118715	83.921193	-438.073987	-82.850896	80.277521	-40.445639	
